<svg id="Layer_1" data-name="Layer 1" xmlns="http://www.w3.org/2000/svg" viewBox="0 0 715.37 309.29"><title>logo</title><path d="M202.81,72.25c-1.37,0-3.43-2.4-4.11-4.46-2.06-7.89-7.55-24-13.38-31.56-9.6-12.69-20.92-17.49-48-17.49-13,0-15.09,2.74-15.09,11.32V182.69c0,14.41,3.43,21.27,20.92,21.27H175c1.72,0,3.09,0,3.09,3.43,0,3.09-.69,4.8-2.4,4.8-4.81,0-32.59-1.37-67.57-1.37-36,0-70,1.37-73.41,1.37-2.4,0-3.08-1.37-3.08-4.46,0-3.43,1-3.77,3.08-3.77H67.33c16.8,0,19.21-6.52,19.21-24.35V29.72c0-8.58-4.12-11-20.93-11-14.06,0-21.26.69-28.47,7.55-9.6,8.91-19.55,29.15-26.06,41.5C9.36,70.88,8.67,74.65,7,74.65c-3.09,0-6.17-.69-6.17-2.4,0-3.09,6.51-44.59,8.57-66.2a3.84,3.84,0,0,1,4.12-3.77A4.76,4.76,0,0,1,16.91,4c2.74,2.74,9.94,5.83,33.27,5.83h108c27.79,0,36-3.09,39.45-6.52C199,1.93,200.41.9,202.13.9A2.88,2.88,0,0,1,205.21,4C205.21,23.2,208,67.1,208,69.5,208,70.88,205.21,72.25,202.81,72.25Z" fill="#f47d31"/><path d="M334.87,97.29h-4.8c-8.23,0-18.18,4.8-24,23.32-10.64,33.27-28.47,71-41.16,96.38-6.86,14.07-26.07,61.4-41.16,76.84-8.58,8.57-21.61,14.4-38.76,14.4-17.84,0-31.56-14.75-31.56-28.12,0-13,7.89-22,19.9-22,16.46,0,20.23,29.85,31.21,29.85,5.49,0,11-3.09,16.81-10.29,6.86-8.58,19.55-31.22,33.27-64.15a15.25,15.25,0,0,0,1-4.8c0-1.71-.69-2.4-1.72-4.8l-44.59-88.49C201.44,99.69,197,97.29,188.06,97.29c-1.37,0-2.4-1.38-2.4-4.46,0-2.75.35-3.77,2.06-3.77,3.09,0,12.69,1.37,33.27,1.37,19.9,0,39.79-1.37,42.88-1.37,2.06,0,2.74,1.37,2.74,3.42,0,3.09-.34,4.81-3.08,4.81-14.75,0-18.87,4.46-18.87,12,0,3.77,1.72,9.61,4.12,14.75l21.61,44.25c1,1.71,2.05,3.43,3.43,3.43,1,0,2.4-1.72,3.08-3.43,7.55-15.78,22-55.91,22-62.08,0-6.52-4.11-8.92-14.06-8.92-3.43,0-4.46-1-4.46-3.78,0-3.43.69-4.45,2.06-4.45,3.09,0,9.95,1.37,24.7,1.37s24.69-1.37,27.78-1.37c2.06,0,2.74.68,2.74,3.42S336.93,97.29,334.87,97.29Z" fill="#f47d31"/><path d="M441.2,215.28c-14.41,0-31.56-5.49-46-12.69a15.12,15.12,0,0,0-5.15-1.72c-1,0-1.71.35-1.71,3.09v35.33c0,51.79,2.4,55.91,14.75,55.91H431.6c2,0,3.08.34,3.08,3.77,0,2.4-.68,4.46-3.08,4.46S410,302.06,374,302.06c-43.56,0-62.43,1.37-65.51,1.37-1.72,0-3.09-1.71-3.09-4.8,0-2.74,1-3.43,2.74-3.43h31.56c13.38,0,17.15-4.46,17.15-51.79V143.25c0-29.16-1-34-19.55-34-1.72,0-2.4-1.37-2.4-4.11,0-1.38,1-2.06,3.77-2.75,24.7-5.49,36-19.55,39.45-19.55s7.54,15.09,7.54,27.78c0,2.06.69,2.75,2.06,2.75,1,0,1.72-1,3.09-2.4C405.53,96.26,417.53,85.28,435,85.28c30.87,0,50.42,26.07,50.42,65.86C485.45,187.5,467.27,215.28,441.2,215.28ZM423,103.46c-16.46,0-34.64,17.49-34.64,27.1v55.91c0,6.17,25,14.75,36.7,14.75,14.4,0,25.38-22.3,25.38-48.37C450.46,122.33,440.86,103.46,423,103.46Z" fill="#f47d31"/><path d="M578.05,214.94c-43.22,0-70.65-19.21-70.65-64.49,0-39.79,27.09-65.17,70.31-65.17,44.25,0,65.17,29.5,65.17,64.83C642.88,191.61,616.81,214.94,578.05,214.94ZM573.94,93.86c-17.5,0-30.19,18.18-30.19,54.88,0,39.44,12,58.31,34,58.31,19.21,0,28.47-18.87,28.47-53.17C606.18,111.69,595.55,93.86,573.94,93.86Z" fill="#f47d31"/><path d="M693,216c-11,0-18.87-7.55-18.87-20.24a19.25,19.25,0,0,1,19.55-19.21c11.32,0,19.21,7.89,19.21,20.58C712.85,208.42,705,216,693,216Z" fill="#f47d31"/></svg>